<svg version="1.1" id="Layer_1" xmlns="http://www.w3.org/2000/svg" xmlns:xlink="http://www.w3.org/1999/xlink" x="0px" y="0px"
	 width="100%" viewBox="0 0 512 512" enable-background="new 0 0 512 512" xml:space="preserve">
<path fill="#000000" opacity="1.000000" stroke="none" 
	d="
M255.000000,513.000000 
	C170.020615,513.000000 85.541229,513.000000 1.030922,513.000000 
	C1.030922,342.395599 1.030922,171.791168 1.030922,1.093376 
	C171.562744,1.093376 342.125549,1.093376 512.844177,1.093376 
	C512.844177,171.666550 512.844177,342.333252 512.844177,513.000000 
	C427.124481,513.000000 341.312225,513.000000 255.000000,513.000000 
M415.000214,229.500229 
	C424.260651,220.224838 433.521057,210.949448 443.025940,201.429199 
	C450.714569,209.152725 457.878479,216.573593 465.342163,223.679581 
	C467.081512,225.335541 469.762909,226.610062 472.143158,226.875854 
	C480.825684,227.845398 486.536713,222.710693 487.057129,212.241058 
	C487.456879,204.199356 488.279297,196.173798 489.084106,188.158173 
	C490.312378,175.924744 491.637970,163.700439 493.018646,151.483170 
	C493.900635,143.679047 494.972748,135.896576 495.930023,128.100739 
	C497.122681,118.388199 493.736877,110.134674 482.110504,111.045143 
	C472.135895,111.826263 462.197235,113.055962 452.232758,113.980530 
	C443.881042,114.755463 435.500763,115.238251 427.158783,116.098953 
	C415.752289,117.275818 404.391876,118.956284 392.968109,119.884285 
	C387.419556,120.335022 382.872986,121.843887 380.549225,127.053268 
	C377.954620,132.869797 379.248993,137.995956 383.951508,142.516785 
	C392.427887,150.665680 400.674561,159.053452 408.242493,166.571793 
	C366.704193,208.110657 325.515198,249.300201 283.767609,291.048370 
	C282.996429,290.079651 281.983032,288.522675 280.698944,287.235901 
	C256.570953,263.057220 232.461105,238.860077 208.233261,214.781723 
	C198.337418,204.946945 183.713394,204.067795 174.687561,213.021011 
	C124.294098,263.009216 74.166161,313.265564 24.068996,363.551300 
	C18.129004,369.513672 16.798712,377.069061 18.727013,385.319702 
	C23.343973,405.074280 47.957817,408.089844 60.109444,395.656799 
	C93.066956,361.936127 126.668037,328.844604 160.001709,295.491364 
	C170.129135,285.357971 180.216675,275.184723 190.462265,264.889252 
	C216.183182,290.634155 241.733154,316.209961 267.285706,341.783203 
	C277.623901,352.129822 292.399170,352.097626 302.804626,341.693909 
	C340.039337,304.465515 377.268799,267.231873 415.000214,229.500229 
z"/>
<path fill="#F14F4A" opacity="1.000000" stroke="none" 
	d="
M414.750244,229.750244 
	C377.268799,267.231873 340.039337,304.465515 302.804626,341.693909 
	C292.399170,352.097626 277.623901,352.129822 267.285706,341.783203 
	C241.733154,316.209961 216.183182,290.634155 190.462265,264.889252 
	C180.216675,275.184723 170.129135,285.357971 160.001709,295.491364 
	C126.668037,328.844604 93.066956,361.936127 60.109444,395.656799 
	C47.957817,408.089844 23.343973,405.074280 18.727013,385.319702 
	C16.798712,377.069061 18.129004,369.513672 24.068996,363.551300 
	C74.166161,313.265564 124.294098,263.009216 174.687561,213.021011 
	C183.713394,204.067795 198.337418,204.946945 208.233261,214.781723 
	C232.461105,238.860077 256.570953,263.057220 280.698944,287.235901 
	C281.983032,288.522675 282.996429,290.079651 283.767609,291.048370 
	C325.515198,249.300201 366.704193,208.110657 408.242493,166.571793 
	C400.674561,159.053452 392.427887,150.665680 383.951508,142.516785 
	C379.248993,137.995956 377.954620,132.869797 380.549225,127.053268 
	C382.872986,121.843887 387.419556,120.335022 392.968109,119.884285 
	C404.391876,118.956284 415.752289,117.275818 427.158783,116.098953 
	C435.500763,115.238251 443.881042,114.755463 452.232758,113.980530 
	C462.197235,113.055962 472.135895,111.826263 482.110504,111.045143 
	C493.736877,110.134674 497.122681,118.388199 495.930023,128.100739 
	C494.972748,135.896576 493.900635,143.679047 493.018646,151.483170 
	C491.637970,163.700439 490.312378,175.924744 489.084106,188.158173 
	C488.279297,196.173798 487.456879,204.199356 487.057129,212.241058 
	C486.536713,222.710693 480.825684,227.845398 472.143158,226.875854 
	C469.762909,226.610062 467.081512,225.335541 465.342163,223.679581 
	C457.878479,216.573593 450.714569,209.152725 443.025940,201.429199 
	C433.521057,210.949448 424.260651,220.224838 414.750244,229.750244 
z"/>
</svg>