<svg version="1.1" id="Layer_1" xmlns="http://www.w3.org/2000/svg" xmlns:xlink="http://www.w3.org/1999/xlink" x="0px" y="0px"
	 width="100%" viewBox="0 0 512 512" enable-background="new 0 0 512 512" xml:space="preserve">
<path fill="#AA5D24" opacity="1.000000" stroke="none" 
	d="
M0.999996,457.000000 
	C1.000000,348.311890 1.000000,239.623795 1.211969,130.761292 
	C9.118800,160.312119 34.730728,167.199173 59.159233,163.264587 
	C59.534622,163.628815 59.795567,163.760101 60.555237,163.834610 
	C79.681328,163.788239 98.344963,163.726578 117.473572,163.728790 
	C132.270523,163.723480 146.602493,163.654282 161.401978,163.656464 
	C163.365036,163.786148 164.860596,163.895218 166.356155,163.895416 
	C231.754440,163.903976 297.152710,163.905350 362.550995,163.890488 
	C364.376404,163.890060 366.201721,163.703674 368.484863,163.709305 
	C375.011536,163.521851 381.080383,163.229111 387.476440,163.017517 
	C388.481476,163.563065 389.229797,163.951324 389.826355,164.503555 
	C396.060516,170.274689 396.054871,170.283066 390.032166,176.305725 
	C351.855743,214.481674 313.679474,252.657715 275.501251,290.831848 
	C270.973663,295.358917 270.964203,295.357635 266.304382,290.700134 
	C242.733002,267.140472 219.169098,243.573288 195.591919,220.019394 
	C182.970322,207.410248 169.307144,207.389206 156.691666,219.999161 
	C109.432388,267.237671 62.184132,314.487244 14.957905,361.758820 
	C12.845259,363.873444 10.815522,366.116058 9.043209,368.517548 
	C2.159503,377.844910 2.886259,390.006195 10.684664,398.220673 
	C20.507362,408.567474 34.887417,408.678589 45.274452,398.304749 
	C87.483551,356.149261 129.682739,313.983612 171.752747,271.689575 
	C175.098053,268.326416 176.972046,268.092010 180.429703,271.594147 
	C203.843704,295.309296 227.469315,318.815704 251.055328,342.360748 
	C264.126129,355.408813 277.205139,355.440002 290.160736,342.488373 
	C334.824219,297.838470 379.475800,253.176651 424.133972,208.521454 
	C429.007385,203.648376 429.011383,203.656998 434.038605,208.678864 
	C439.933105,214.567001 445.747803,220.538651 451.762634,226.301300 
	C455.073364,229.473175 458.917236,230.886963 463.637268,229.021286 
	C468.252747,227.196945 471.298645,224.148804 471.828552,219.239120 
	C473.040100,208.014221 473.868530,196.747986 475.076996,185.522720 
	C475.890259,177.968521 477.087067,170.455643 478.482605,162.956848 
	C484.232544,163.919174 486.051575,167.326462 486.040710,172.520981 
	C485.970673,205.980011 486.021393,239.439301 485.676544,273.108276 
	C483.175507,273.474823 481.030640,273.763794 478.885223,273.768158 
	C453.421326,273.820190 427.956848,273.738831 402.493622,273.886871 
	C388.701569,273.967041 376.831726,279.264923 367.000366,288.729706 
	C352.331512,302.851624 347.568085,320.277161 350.686829,340.485962 
	C347.159607,362.468262 359.051910,385.304321 378.692230,395.930054 
	C389.045441,401.531189 400.191986,402.726318 411.512268,402.851532 
	C436.300781,403.125763 461.093658,403.003204 485.928436,403.506836 
	C485.981140,431.618042 485.949982,459.265228 486.040100,486.912018 
	C486.054504,491.326996 484.612732,494.288086 480.002563,495.067749 
	C477.912384,495.421204 475.806946,495.949188 473.708282,495.949829 
	C335.305817,495.991730 196.903320,496.005371 58.500896,495.919708 
	C53.265934,495.916443 47.925453,495.400574 42.815784,494.288757 
	C23.201658,490.021118 10.438343,477.749908 3.099713,459.376709 
	C2.730511,458.452393 1.714721,457.786316 0.999996,457.000000 
z"/>
<path fill="#000000" opacity="1.000000" stroke="none" 
	d="
M486.032471,272.898499 
	C486.021393,239.439301 485.970673,205.980011 486.040710,172.520981 
	C486.051575,167.326462 484.232544,163.919174 478.456390,162.538666 
	C478.372711,160.845032 478.833710,159.618668 478.974823,158.356552 
	C480.007843,149.116989 480.799194,139.846802 482.016541,130.632507 
	C483.193176,121.726288 478.993378,113.951241 471.748138,114.169037 
	C460.843048,114.496857 449.971130,115.928558 439.057007,116.430374 
	C439.019135,104.669006 439.011261,93.368240 438.998932,82.067474 
	C438.990784,74.617630 436.505219,72.025078 428.912964,72.019012 
	C393.016479,71.990334 357.119934,72.029526 321.086792,71.726120 
	C305.294098,55.735203 289.713654,39.986080 273.950317,24.422153 
	C265.932861,16.506084 261.104218,16.775236 253.822266,24.559715 
	C247.805023,30.992228 241.307632,36.975594 234.715668,43.008636 
	C227.459503,35.929127 220.513519,28.996101 213.560776,22.069847 
	C209.139664,17.665565 204.193008,17.371626 199.856461,21.688667 
	C183.001221,38.467979 166.253540,55.355362 148.972092,72.134109 
	C113.580574,72.377693 78.679726,72.503738 43.786335,73.080833 
	C26.555878,73.365814 6.575593,90.796478 2.591958,107.963409 
	C1.849091,108.031715 1.424546,108.015854 1.000000,108.000000 
	C1.000000,72.350563 1.000000,36.701130 1.000000,1.025849 
	C171.566971,1.025849 342.133942,1.025849 513.000000,1.025849 
	C513.000000,96.020683 513.000000,191.041687 512.752686,286.869263 
	C509.946259,284.441772 507.722687,280.851929 504.753967,278.052185 
	C499.547272,273.141907 492.783752,272.790009 486.032471,272.898499 
z"/>
<path fill="#F99608" opacity="1.000000" stroke="none" 
	d="
M485.676544,273.108276 
	C492.783752,272.790009 499.547272,273.141907 504.753967,278.052185 
	C507.722687,280.851929 509.946259,284.441772 512.752686,287.337921 
	C513.000000,314.354218 513.000000,341.708466 512.754761,369.193542 
	C506.629944,379.528412 497.907166,384.625519 485.727112,383.774506 
	C483.439667,383.359955 481.459625,383.131866 479.479034,383.126556 
	C452.887543,383.055023 426.295563,383.083405 399.704651,382.925018 
	C391.583893,382.876678 384.270477,379.768402 377.328705,375.816254 
	C363.281982,367.819183 355.161560,355.391022 350.877136,340.137207 
	C347.568085,320.277161 352.331512,302.851624 367.000366,288.729706 
	C376.831726,279.264923 388.701569,273.967041 402.493622,273.886871 
	C427.956848,273.738831 453.421326,273.820190 478.885223,273.768158 
	C481.030640,273.763794 483.175507,273.474823 485.676544,273.108276 
M397.575226,307.971313 
	C386.250977,316.024628 383.219147,331.788391 390.973114,342.298309 
	C399.381805,353.695679 414.172699,355.950500 425.429504,348.329559 
	C436.651154,340.732361 437.714783,322.589111 430.799408,313.614868 
	C423.135315,303.668976 410.108826,301.077576 397.575226,307.971313 
z"/>
<path fill="#000000" opacity="1.000000" stroke="none" 
	d="
M486.034241,384.064545 
	C497.907166,384.625519 506.629944,379.528412 512.754761,369.662231 
	C513.000000,417.637299 513.000000,465.274628 513.000000,512.951782 
	C342.333344,512.951782 171.666672,512.951782 1.000000,512.951782 
	C1.000000,494.581512 1.000000,476.259430 0.999996,457.468658 
	C1.714721,457.786316 2.730511,458.452393 3.099713,459.376709 
	C10.438343,477.749908 23.201658,490.021118 42.815784,494.288757 
	C47.925453,495.400574 53.265934,495.916443 58.500896,495.919708 
	C196.903320,496.005371 335.305817,495.991730 473.708282,495.949829 
	C475.806946,495.949188 477.912384,495.421204 480.002563,495.067749 
	C484.612732,494.288086 486.054504,491.326996 486.040100,486.912018 
	C485.949982,459.265228 485.981140,431.618042 485.985168,403.038940 
	C486.010254,396.092773 486.022247,390.078644 486.034241,384.064545 
z"/>
<path fill="#68321A" opacity="1.000000" stroke="none" 
	d="
M1.000000,108.468582 
	C1.424546,108.015854 1.849091,108.031715 2.746742,108.303070 
	C10.123419,128.699081 23.982677,140.790070 45.206100,143.138550 
	C56.046295,144.338074 67.080788,143.781738 77.853912,144.302582 
	C71.767738,150.680786 65.855118,156.775452 59.708164,162.925171 
	C59.473827,162.980194 59.008518,163.103714 59.008518,163.103714 
	C34.730728,167.199173 9.118800,160.312119 1.211969,130.293427 
	C1.000000,122.979050 1.000000,115.958107 1.000000,108.468582 
z"/>
<path fill="#F14F4A" opacity="1.000000" stroke="none" 
	d="
M439.085114,116.890991 
	C449.971130,115.928558 460.843048,114.496857 471.748138,114.169037 
	C478.993378,113.951241 483.193176,121.726288 482.016541,130.632507 
	C480.799194,139.846802 480.007843,149.116989 478.974823,158.356552 
	C478.833710,159.618668 478.372711,160.845032 478.086060,162.506119 
	C477.087067,170.455643 475.890259,177.968521 475.076996,185.522720 
	C473.868530,196.747986 473.040100,208.014221 471.828552,219.239120 
	C471.298645,224.148804 468.252747,227.196945 463.637268,229.021286 
	C458.917236,230.886963 455.073364,229.473175 451.762634,226.301300 
	C445.747803,220.538651 439.933105,214.567001 434.038605,208.678864 
	C429.011383,203.656998 429.007385,203.648376 424.133972,208.521454 
	C379.475800,253.176651 334.824219,297.838470 290.160736,342.488373 
	C277.205139,355.440002 264.126129,355.408813 251.055328,342.360748 
	C227.469315,318.815704 203.843704,295.309296 180.429703,271.594147 
	C176.972046,268.092010 175.098053,268.326416 171.752747,271.689575 
	C129.682739,313.983612 87.483551,356.149261 45.274452,398.304749 
	C34.887417,408.678589 20.507362,408.567474 10.684664,398.220673 
	C2.886259,390.006195 2.159503,377.844910 9.043209,368.517548 
	C10.815522,366.116058 12.845259,363.873444 14.957905,361.758820 
	C62.184132,314.487244 109.432388,267.237671 156.691666,219.999161 
	C169.307144,207.389206 182.970322,207.410248 195.591919,220.019394 
	C219.169098,243.573288 242.733002,267.140472 266.304382,290.700134 
	C270.964203,295.357635 270.973663,295.358917 275.501251,290.831848 
	C313.679474,252.657715 351.855743,214.481674 390.032166,176.305725 
	C396.054871,170.283066 396.060516,170.274689 389.826355,164.503555 
	C389.229797,163.951324 388.481476,163.563065 387.369934,162.691681 
	C380.934082,156.201202 374.931885,150.117691 368.787292,143.699097 
	C363.545166,136.087280 364.792053,130.347580 373.143494,124.309608 
	C388.017578,122.794693 402.523102,121.462723 417.004242,119.904259 
	C424.387115,119.109718 431.726227,117.908424 439.085114,116.890991 
z"/>
<path fill="#6D8915" opacity="1.000000" stroke="none" 
	d="
M368.027100,163.604019 
	C366.201721,163.703674 364.376404,163.890060 362.550995,163.890488 
	C297.152710,163.905350 231.754440,163.903976 166.356155,163.895416 
	C164.860596,163.895218 163.365036,163.786148 161.447861,163.338165 
	C162.379364,161.106918 163.606766,159.154800 165.110092,157.445343 
	C169.038223,152.978546 173.087051,148.617905 177.428085,144.157471 
	C178.454010,144.011520 179.139633,143.923035 180.308746,143.879211 
	C236.875900,143.935318 292.959564,143.946747 349.356262,143.991501 
	C350.084198,144.086777 350.499084,144.148727 351.013733,144.528412 
	C352.965546,146.954056 354.791931,149.085175 356.675049,151.165009 
	C360.442627,155.326218 364.241272,159.459320 368.027100,163.604019 
z"/>
<path fill="#7D3D1E" opacity="1.000000" stroke="none" 
	d="
M485.727112,383.774506 
	C486.022247,390.078644 486.010254,396.092773 485.941528,402.574768 
	C461.093658,403.003204 436.300781,403.125763 411.512268,402.851532 
	C400.191986,402.726318 389.045441,401.531189 378.692230,395.930054 
	C359.051910,385.304321 347.159607,362.468262 350.686829,340.485962 
	C355.161560,355.391022 363.281982,367.819183 377.328705,375.816254 
	C384.270477,379.768402 391.583893,382.876678 399.704651,382.925018 
	C426.295563,383.083405 452.887543,383.055023 479.479034,383.126556 
	C481.459625,383.131866 483.439667,383.359955 485.727112,383.774506 
z"/>
<path fill="#6D8915" opacity="1.000000" stroke="none" 
	d="
M59.942505,162.870132 
	C65.855118,156.775452 71.767738,150.680786 78.099121,144.184952 
	C78.983459,143.504349 79.449028,143.224915 80.269165,143.174042 
	C82.591850,143.602676 84.559402,143.969604 86.528214,143.976547 
	C102.670044,144.033417 118.812096,144.023239 134.782074,144.313416 
	C132.920456,146.379425 131.209076,148.145462 129.545517,149.955429 
	C125.355042,154.514694 121.186134,159.093781 117.008591,163.664917 
	C98.344963,163.726578 79.681328,163.788239 60.518974,163.597748 
	C60.020248,163.345596 59.942505,162.870132 59.942505,162.870132 
z"/>
<path fill="#78A017" opacity="1.000000" stroke="none" 
	d="
M117.473572,163.728790 
	C121.186134,159.093781 125.355042,154.514694 129.545517,149.955429 
	C131.209076,148.145462 132.920456,146.379425 135.061188,144.297729 
	C135.698105,143.991867 135.883865,143.981659 136.533875,143.977722 
	C150.361359,144.060974 163.724564,144.137955 177.087784,144.214935 
	C173.087051,148.617905 169.038223,152.978546 165.110092,157.445343 
	C163.606766,159.154800 162.379364,161.106918 160.980347,163.266785 
	C146.602493,163.654282 132.270523,163.723480 117.473572,163.728790 
z"/>
<path fill="#7A9F18" opacity="1.000000" stroke="none" 
	d="
M368.484863,163.709305 
	C364.241272,159.459320 360.442627,155.326218 356.675049,151.165009 
	C354.791931,149.085175 352.965546,146.954056 351.487305,144.470154 
	C357.550659,144.074188 363.240204,144.054184 368.929718,144.034180 
	C374.931885,150.117691 380.934082,156.201202 387.042786,162.610535 
	C381.080383,163.229111 375.011536,163.521851 368.484863,163.709305 
z"/>
<path fill="#827A1A" opacity="1.000000" stroke="none" 
	d="
M59.708168,162.925171 
	C59.942505,162.870132 60.020248,163.345596 60.056511,163.582458 
	C59.795567,163.760101 59.534622,163.628815 59.159233,163.264587 
	C59.008518,163.103714 59.473827,162.980194 59.708168,162.925171 
z"/>
<path fill="#8ACC19" opacity="1.000000" stroke="none" 
	d="
M368.787292,143.699097 
	C363.240204,144.054184 357.550659,144.074188 351.387573,144.152435 
	C350.499084,144.148727 350.084198,144.086777 349.167603,143.719131 
	C329.645294,124.325874 310.663879,105.199005 291.573059,86.181938 
	C287.455750,82.080521 284.081818,82.397179 278.849304,86.687607 
	C270.156036,93.815727 259.195557,94.144432 250.312271,87.543404 
	C242.517303,81.751091 240.707703,81.856148 233.886765,88.668571 
	C217.055466,105.478844 200.228577,122.293633 183.444870,139.151367 
	C182.063736,140.538589 181.023743,142.265472 179.825256,143.834534 
	C179.139633,143.923035 178.454010,144.011520 177.428085,144.157471 
	C163.724564,144.137955 150.361359,144.060974 136.697937,143.697021 
	C137.761307,141.954239 139.085022,140.458557 140.494370,139.048477 
	C170.618973,108.908356 200.763519,78.788162 230.856735,48.616741 
	C232.459091,47.010216 233.643845,44.987137 235.023010,43.157978 
	C241.307632,36.975594 247.805023,30.992228 253.822266,24.559715 
	C261.104218,16.775236 265.932861,16.506084 273.950317,24.422153 
	C289.713654,39.986080 305.294098,55.735203 321.128601,72.048378 
	C338.459625,89.925629 355.612244,107.162224 372.764893,124.398819 
	C364.792053,130.347580 363.545166,136.087280 368.787292,143.699097 
z"/>
<path fill="#7C3D1E" opacity="1.000000" stroke="none" 
	d="
M79.914597,142.945465 
	C79.449028,143.224915 78.983459,143.504349 78.272675,143.901413 
	C67.080788,143.781738 56.046295,144.338074 45.206100,143.138550 
	C23.982677,140.790070 10.123419,128.699081 3.065064,108.218903 
	C6.575593,90.796478 26.555878,73.365814 43.786335,73.080833 
	C78.679726,72.503738 113.580574,72.377693 148.832504,72.460770 
	C147.766144,74.465767 146.424561,76.154190 144.913208,77.673759 
	C123.260422,99.444344 101.584755,121.192169 79.914597,142.945465 
z"/>
<path fill="#78AA17" opacity="1.000000" stroke="none" 
	d="
M80.269150,143.174026 
	C101.584755,121.192169 123.260422,99.444344 144.913208,77.673759 
	C146.424561,76.154190 147.766144,74.465767 149.326248,72.529190 
	C166.253540,55.355362 183.001221,38.467979 199.856461,21.688667 
	C204.193008,17.371626 209.139664,17.665565 213.560776,22.069847 
	C220.513519,28.996101 227.459503,35.929127 234.715668,43.008636 
	C233.643845,44.987137 232.459091,47.010216 230.856735,48.616741 
	C200.763519,78.788162 170.618973,108.908356 140.494370,139.048477 
	C139.085022,140.458557 137.761307,141.954239 136.233673,143.690750 
	C135.883865,143.981659 135.698105,143.991867 135.233215,144.017746 
	C118.812096,144.023239 102.670044,144.033417 86.528214,143.976547 
	C84.559402,143.969604 82.591850,143.602676 80.269150,143.174026 
z"/>
<path fill="#7C3D1E" opacity="1.000000" stroke="none" 
	d="
M373.143494,124.309608 
	C355.612244,107.162224 338.459625,89.925629 321.265198,72.366783 
	C357.119934,72.029526 393.016479,71.990334 428.912964,72.019012 
	C436.505219,72.025078 438.990784,74.617630 438.998932,82.067474 
	C439.011261,93.368240 439.019135,104.669006 439.057007,116.430382 
	C431.726227,117.908424 424.387115,119.109718 417.004242,119.904259 
	C402.523102,121.462723 388.017578,122.794693 373.143494,124.309608 
z"/>
<path fill="#FFCF39" opacity="1.000000" stroke="none" 
	d="
M397.884247,307.773071 
	C410.108826,301.077576 423.135315,303.668976 430.799408,313.614868 
	C437.714783,322.589111 436.651154,340.732361 425.429504,348.329559 
	C414.172699,355.950500 399.381805,353.695679 390.973114,342.298309 
	C383.219147,331.788391 386.250977,316.024628 397.884247,307.773071 
z"/>
<path fill="#78A017" opacity="1.000000" stroke="none" 
	d="
M180.308746,143.879211 
	C181.023743,142.265472 182.063736,140.538589 183.444870,139.151367 
	C200.228577,122.293633 217.055466,105.478844 233.886765,88.668571 
	C240.707703,81.856148 242.517303,81.751091 250.312271,87.543404 
	C259.195557,94.144432 270.156036,93.815727 278.849304,86.687607 
	C284.081818,82.397179 287.455750,82.080521 291.573059,86.181938 
	C310.663879,105.199005 329.645294,124.325874 348.854553,143.685791 
	C292.959564,143.946747 236.875900,143.935318 180.308746,143.879211 
z"/>
</svg>