<svg version="1.1" id="Layer_1" xmlns="http://www.w3.org/2000/svg" xmlns:xlink="http://www.w3.org/1999/xlink" x="0px" y="0px"
	 width="100%" viewBox="0 0 512 512" enable-background="new 0 0 512 512" xml:space="preserve">
<path fill="#AA5D24" opacity="1.000000" stroke="none" 
	d="
M0.999997,457.000000 
	C1.000000,348.645233 1.000000,240.290466 1.246971,131.725021 
	C1.803761,132.285217 2.172767,133.037994 2.414824,133.829590 
	C10.432990,160.051071 35.083786,167.253983 59.159668,163.264221 
	C59.534954,163.628479 59.795841,163.759827 60.555450,163.834381 
	C79.681442,163.787994 98.344986,163.726379 117.473526,163.728607 
	C132.270538,163.723221 146.602554,163.653976 161.402069,163.656097 
	C163.365173,163.785736 164.860779,163.894867 166.356369,163.895050 
	C231.756348,163.903625 297.156311,163.905075 362.556305,163.889603 
	C364.381317,163.889160 366.206299,163.695267 368.492615,163.673248 
	C382.935913,163.757034 396.917877,163.759171 411.197083,163.809357 
	C411.694427,163.861130 411.894562,163.864883 412.557312,163.871307 
	C416.152008,163.883530 419.289032,164.010040 422.414978,163.876877 
	C427.952850,163.640930 433.484039,163.247208 439.484650,162.949951 
	C451.931396,162.986694 463.911499,162.985886 475.891602,163.001938 
	C483.468781,163.012100 485.992920,165.521103 485.996857,173.064346 
	C486.014160,206.342392 486.021667,239.620422 485.676697,273.108185 
	C483.175568,273.474579 481.030701,273.763397 478.885254,273.767761 
	C453.421204,273.819794 427.956573,273.738464 402.493195,273.886658 
	C388.701111,273.966919 376.831238,279.264984 366.999847,288.729889 
	C352.330841,302.852020 347.568268,320.277893 350.686554,340.486664 
	C347.162659,362.473541 359.052856,385.304321 378.693390,395.929932 
	C389.046509,401.531006 400.193024,402.725769 411.513214,402.850983 
	C436.301514,403.125214 461.094238,403.002899 485.928772,403.506744 
	C485.981384,431.617950 485.950317,459.265137 486.040405,486.911926 
	C486.054810,491.326782 484.613190,494.288208 480.002930,495.068024 
	C477.912781,495.421570 475.807281,495.949432 473.708618,495.950073 
	C335.306244,495.991974 196.903870,496.005585 58.501553,495.919922 
	C53.266544,495.916687 47.925976,495.401276 42.816307,494.289398 
	C23.202385,490.021515 10.438440,477.750824 3.099765,459.377441 
	C2.730486,458.452911 1.714745,457.786560 0.999997,457.000000 
z"/>
<path fill="#000000" opacity="1.000000" stroke="none" 
	d="
M486.032684,272.898468 
	C486.021667,239.620422 486.014160,206.342392 485.996857,173.064346 
	C485.992920,165.521103 483.468781,163.012100 475.891602,163.001938 
	C463.911499,162.985886 451.931396,162.986694 439.479004,162.486984 
	C438.949188,155.984329 438.891693,149.975067 438.888489,143.502243 
	C438.961853,122.914154 438.984680,102.789627 438.998169,82.665100 
	C439.003662,74.454887 436.667572,72.014946 428.499603,72.011459 
	C392.740906,71.996216 356.982239,72.028915 321.086914,71.725853 
	C311.256042,61.912220 301.501404,52.477612 291.889282,42.899956 
	C285.682495,36.715439 279.850616,30.149351 273.550385,24.065287 
	C265.918427,16.695175 261.139099,16.833475 254.166611,24.224104 
	C248.011337,30.748520 241.421097,36.862587 234.715591,43.008530 
	C227.459412,35.929066 220.513443,28.996033 213.560715,22.069784 
	C209.139679,17.665573 204.192932,17.371696 199.856400,21.688715 
	C183.001175,38.468021 166.253510,55.355373 148.972092,72.134102 
	C113.580582,72.377693 78.679741,72.503746 43.786362,73.080841 
	C26.555954,73.365814 6.576058,90.796066 2.591911,107.963326 
	C1.849068,108.031647 1.424534,108.015823 1.000000,108.000000 
	C1.000000,72.350563 1.000000,36.701130 1.000000,1.025849 
	C171.566971,1.025849 342.133942,1.025849 513.000000,1.025849 
	C513.000000,96.020683 513.000000,191.041687 512.752686,286.869263 
	C509.946289,284.441772 507.722717,280.851959 504.753998,278.052246 
	C499.547333,273.142029 492.783905,272.790039 486.032684,272.898468 
z"/>
<path fill="#F99608" opacity="1.000000" stroke="none" 
	d="
M485.676697,273.108185 
	C492.783905,272.790039 499.547333,273.142029 504.753998,278.052246 
	C507.722717,280.851959 509.946289,284.441772 512.752686,287.337921 
	C513.000000,314.354218 513.000000,341.708466 512.754761,369.193573 
	C506.630035,379.528625 497.906860,384.625153 485.727051,383.774780 
	C483.438293,383.360291 481.456940,383.132355 479.475037,383.126984 
	C452.866180,383.054596 426.256256,383.125519 399.648895,382.896362 
	C391.588348,382.826965 384.235809,379.887634 377.265411,375.833771 
	C363.295593,367.709137 355.058136,355.447388 350.876648,340.137848 
	C347.568268,320.277893 352.330841,302.852020 366.999847,288.729889 
	C376.831238,279.264984 388.701111,273.966919 402.493195,273.886658 
	C427.956573,273.738464 453.421204,273.819794 478.885254,273.767761 
	C481.030701,273.763397 483.175568,273.474579 485.676697,273.108185 
M432.626862,339.921570 
	C436.238464,332.436249 436.374390,324.685028 432.923065,317.329773 
	C427.385742,305.528961 412.800018,300.594269 401.081116,306.004761 
	C388.972198,311.595306 383.293884,325.752655 388.611328,337.884918 
	C392.538269,346.844635 399.744446,352.027313 409.415314,352.781738 
	C419.352173,353.556915 427.064606,349.188782 432.626862,339.921570 
z"/>
<path fill="#000000" opacity="1.000000" stroke="none" 
	d="
M486.034180,384.064789 
	C497.906860,384.625153 506.630035,379.528625 512.754761,369.662231 
	C513.000000,417.637299 513.000000,465.274628 513.000000,512.951782 
	C342.333344,512.951782 171.666672,512.951782 1.000000,512.951782 
	C1.000000,494.581512 1.000000,476.259430 0.999997,457.468658 
	C1.714745,457.786560 2.730486,458.452911 3.099765,459.377441 
	C10.438440,477.750824 23.202385,490.021515 42.816307,494.289398 
	C47.925976,495.401276 53.266544,495.916687 58.501553,495.919922 
	C196.903870,496.005585 335.306244,495.991974 473.708618,495.950073 
	C475.807281,495.949432 477.912781,495.421570 480.002930,495.068024 
	C484.613190,494.288208 486.054810,491.326782 486.040405,486.911926 
	C485.950317,459.265137 485.981384,431.617950 485.985474,403.038849 
	C486.010406,396.092773 486.022308,390.078796 486.034180,384.064789 
z"/>
<path fill="#68321A" opacity="1.000000" stroke="none" 
	d="
M1.000000,108.468620 
	C1.424534,108.015823 1.849068,108.031647 2.746687,108.302994 
	C10.123346,128.699005 23.982552,140.790070 45.205978,143.138580 
	C56.046173,144.338120 67.080673,143.781769 77.853806,144.302582 
	C71.767647,150.680725 65.855026,156.775345 59.708214,162.924942 
	C59.474026,162.979919 59.009003,163.103333 59.009003,163.103333 
	C35.083786,167.253983 10.432990,160.051071 2.414824,133.829590 
	C2.172767,133.037994 1.803761,132.285217 1.246971,131.257172 
	C1.000000,123.645744 1.000000,116.291496 1.000000,108.468620 
z"/>
<path fill="#6D8915" opacity="1.000000" stroke="none" 
	d="
M368.031281,163.591583 
	C366.206299,163.695267 364.381317,163.889160 362.556305,163.889603 
	C297.156311,163.905075 231.756348,163.903625 166.356369,163.895050 
	C164.860779,163.894867 163.365173,163.785736 161.447937,163.337814 
	C162.379456,161.106705 163.606873,159.154648 165.110214,157.445236 
	C169.038361,152.978577 173.087204,148.618042 177.428314,144.157776 
	C178.454437,144.011871 179.140198,143.923431 180.309402,143.879547 
	C236.876205,143.935593 292.959564,143.947052 349.356018,143.991943 
	C350.083954,144.087540 350.498779,144.149734 351.013367,144.529602 
	C352.964386,146.954376 354.789032,149.085632 356.672546,151.163513 
	C360.441742,155.321655 364.243164,159.450592 368.031281,163.591583 
z"/>
<path fill="#7C3D1E" opacity="1.000000" stroke="none" 
	d="
M485.727051,383.774780 
	C486.022308,390.078796 486.010406,396.092773 485.941833,402.574677 
	C461.094238,403.002899 436.301514,403.125214 411.513214,402.850983 
	C400.193024,402.725769 389.046509,401.531006 378.693390,395.929932 
	C359.052856,385.304321 347.162659,362.473541 350.686554,340.486664 
	C355.058136,355.447388 363.295593,367.709137 377.265411,375.833771 
	C384.235809,379.887634 391.588348,382.826965 399.648895,382.896362 
	C426.256256,383.125519 452.866180,383.054596 479.475037,383.126984 
	C481.456940,383.132355 483.438293,383.360291 485.727051,383.774780 
z"/>
<path fill="#6D8915" opacity="1.000000" stroke="none" 
	d="
M59.942410,162.869965 
	C65.855026,156.775345 71.767647,150.680725 78.099030,144.184952 
	C78.983398,143.504364 79.448997,143.224915 80.269157,143.174011 
	C82.591850,143.602661 84.559395,143.969604 86.528206,143.976547 
	C102.670036,144.033417 118.812096,144.023239 134.782074,144.313416 
	C132.920456,146.379425 131.209122,148.145477 129.545547,149.955429 
	C125.355049,154.514633 121.186096,159.093658 117.008530,163.664764 
	C98.344986,163.726379 79.681442,163.787994 60.519089,163.597519 
	C60.020279,163.345413 59.942413,162.869965 59.942410,162.869965 
z"/>
<path fill="#78A017" opacity="1.000000" stroke="none" 
	d="
M117.473518,163.728607 
	C121.186096,159.093658 125.355049,154.514633 129.545547,149.955429 
	C131.209122,148.145477 132.920456,146.379425 135.061035,144.297791 
	C135.697662,143.992050 135.883301,143.981903 136.533264,143.978027 
	C150.361023,144.061279 163.724472,144.138245 177.087936,144.215210 
	C173.087204,148.618042 169.038361,152.978577 165.110214,157.445236 
	C163.606873,159.154648 162.379456,161.106705 160.980438,163.266479 
	C146.602554,163.653976 132.270538,163.723221 117.473518,163.728607 
z"/>
<path fill="#78A017" opacity="1.000000" stroke="none" 
	d="
M368.492615,163.673248 
	C364.243164,159.450592 360.441742,155.321655 356.672546,151.163513 
	C354.789032,149.085632 352.964386,146.954376 351.487762,144.471069 
	C362.987518,144.065231 374.113098,144.081039 385.237274,143.962723 
	C387.165405,143.942230 389.087524,143.354279 391.259491,143.131653 
	C391.970856,143.500641 392.435120,143.766388 393.068420,144.322113 
	C399.167175,150.715637 405.096985,156.819183 410.992859,163.132050 
	C410.958923,163.341354 410.899841,163.761307 410.899841,163.761307 
	C396.917877,163.759171 382.935913,163.757034 368.492615,163.673248 
z"/>
<path fill="#68321A" opacity="1.000000" stroke="none" 
	d="
M411.026764,162.922745 
	C405.096985,156.819183 399.167175,150.715637 393.545166,144.313385 
	C408.846710,143.998383 423.840454,143.982086 438.834198,143.965790 
	C438.891693,149.975067 438.949188,155.984329 439.012329,162.456543 
	C433.484039,163.247208 427.952850,163.640930 422.414978,163.876877 
	C419.289032,164.010040 416.152008,163.883530 412.416656,163.676163 
	C411.585999,163.243774 411.323822,163.058578 411.026764,162.922745 
z"/>
<path fill="#827A1A" opacity="1.000000" stroke="none" 
	d="
M59.708221,162.924942 
	C59.942413,162.869965 60.020279,163.345413 60.056641,163.582275 
	C59.795841,163.759827 59.534954,163.628479 59.159668,163.264221 
	C59.009003,163.103333 59.474026,162.979919 59.708221,162.924942 
z"/>
<path fill="#898A1B" opacity="1.000000" stroke="none" 
	d="
M410.992859,163.132050 
	C411.323822,163.058578 411.585999,163.243774 411.953979,163.673477 
	C411.894562,163.864883 411.694427,163.861130 411.197083,163.809357 
	C410.899841,163.761307 410.958923,163.341354 410.992859,163.132050 
z"/>
<path fill="#8ACC19" opacity="1.000000" stroke="none" 
	d="
M391.012421,143.028427 
	C389.087524,143.354279 387.165405,143.942230 385.237274,143.962723 
	C374.113098,144.081039 362.987518,144.065231 351.388000,144.153397 
	C350.498779,144.149734 350.083954,144.087540 349.167358,143.719543 
	C329.645111,124.326187 310.663757,105.199318 291.572998,86.182243 
	C287.455658,82.080788 284.081879,82.397461 278.849335,86.687973 
	C270.156281,93.815987 259.195587,94.144684 250.312302,87.543755 
	C242.517365,81.751549 240.707520,81.856583 233.886810,88.668793 
	C217.055542,105.479065 200.228653,122.293800 183.445038,139.151566 
	C182.063950,140.538757 181.024277,142.265839 179.825958,143.834991 
	C179.140198,143.923431 178.454437,144.011871 177.428314,144.157761 
	C163.724472,144.138245 150.361023,144.061279 136.697388,143.697296 
	C137.760788,141.954437 139.084457,140.458694 140.493820,139.048615 
	C170.618500,108.908386 200.763184,78.788109 230.856461,48.616589 
	C232.458862,47.010025 233.643707,44.986996 235.022934,43.157845 
	C241.421097,36.862587 248.011337,30.748520 254.166611,24.224104 
	C261.139099,16.833475 265.918427,16.695175 273.550385,24.065287 
	C279.850616,30.149351 285.682495,36.715439 291.889282,42.899956 
	C301.501404,52.477612 311.256042,61.912220 321.128784,72.048096 
	C322.755890,74.276466 324.146729,75.921661 325.661652,77.443367 
	C347.435425,99.314812 369.225922,121.169624 391.012421,143.028427 
z"/>
<path fill="#7C3D1E" opacity="1.000000" stroke="none" 
	d="
M79.914597,142.945465 
	C79.448997,143.224915 78.983398,143.504364 78.272568,143.901428 
	C67.080673,143.781769 56.046173,144.338120 45.205978,143.138580 
	C23.982552,140.790070 10.123346,128.699005 3.064996,108.218842 
	C6.576058,90.796066 26.555954,73.365814 43.786362,73.080841 
	C78.679741,72.503746 113.580582,72.377693 148.832504,72.460762 
	C147.766129,74.465752 146.424561,76.154182 144.913208,77.673759 
	C123.260437,99.444351 101.584763,121.192169 79.914597,142.945465 
z"/>
<path fill="#78AA17" opacity="1.000000" stroke="none" 
	d="
M80.269157,143.174011 
	C101.584763,121.192169 123.260437,99.444351 144.913208,77.673759 
	C146.424561,76.154182 147.766129,74.465752 149.326248,72.529182 
	C166.253510,55.355373 183.001175,38.468021 199.856400,21.688715 
	C204.192932,17.371696 209.139679,17.665573 213.560715,22.069784 
	C220.513443,28.996033 227.459412,35.929066 234.715591,43.008530 
	C233.643707,44.986996 232.458862,47.010025 230.856461,48.616589 
	C200.763184,78.788109 170.618500,108.908386 140.493820,139.048615 
	C139.084457,140.458694 137.760788,141.954437 136.233093,143.691010 
	C135.883301,143.981903 135.697662,143.992050 135.233047,144.017807 
	C118.812096,144.023239 102.670036,144.033417 86.528206,143.976547 
	C84.559395,143.969604 82.591850,143.602661 80.269157,143.174011 
z"/>
<path fill="#7C3D1E" opacity="1.000000" stroke="none" 
	d="
M391.259491,143.131653 
	C369.225922,121.169624 347.435425,99.314812 325.661652,77.443367 
	C324.146729,75.921661 322.755890,74.276466 321.265442,72.366463 
	C356.982239,72.028915 392.740906,71.996216 428.499603,72.011459 
	C436.667572,72.014946 439.003662,74.454887 438.998169,82.665100 
	C438.984680,102.789627 438.961853,122.914154 438.888489,143.502228 
	C423.840454,143.982086 408.846710,143.998383 393.376190,144.023407 
	C392.435120,143.766388 391.970856,143.500641 391.259491,143.131653 
z"/>
<path fill="#FFCF39" opacity="1.000000" stroke="none" 
	d="
M432.440979,340.252380 
	C427.064606,349.188782 419.352173,353.556915 409.415314,352.781738 
	C399.744446,352.027313 392.538269,346.844635 388.611328,337.884918 
	C383.293884,325.752655 388.972198,311.595306 401.081116,306.004761 
	C412.800018,300.594269 427.385742,305.528961 432.923065,317.329773 
	C436.374390,324.685028 436.238464,332.436249 432.440979,340.252380 
z"/>
<path fill="#78A017" opacity="1.000000" stroke="none" 
	d="
M180.309418,143.879562 
	C181.024277,142.265839 182.063950,140.538757 183.445038,139.151566 
	C200.228653,122.293800 217.055542,105.479065 233.886810,88.668793 
	C240.707520,81.856583 242.517365,81.751549 250.312302,87.543755 
	C259.195587,94.144684 270.156281,93.815987 278.849335,86.687973 
	C284.081879,82.397461 287.455658,82.080788 291.572998,86.182243 
	C310.663757,105.199318 329.645111,124.326187 348.854309,143.686127 
	C292.959564,143.947052 236.876205,143.935593 180.309418,143.879562 
z"/>
</svg>