<svg version="1.1" id="Layer_1" xmlns="http://www.w3.org/2000/svg" xmlns:xlink="http://www.w3.org/1999/xlink" x="0px" y="0px"
	 width="100%" viewBox="0 0 300 300" enable-background="new 0 0 300 300" xml:space="preserve">
<path fill="#AA5D24" opacity="1.000000" stroke="none" 
	d="
M1.000000,271.000000 
	C1.000000,206.645767 1.000000,142.291550 1.200017,77.759171 
	C5.871384,94.679504 23.660105,99.569298 36.112923,96.007828 
	C47.400131,96.031166 58.182217,96.022217 69.435745,96.045013 
	C78.259338,96.043434 86.611473,96.010109 95.433594,96.010437 
	C135.934967,96.029053 175.966370,96.014008 216.465714,96.032501 
	C225.049408,96.057686 233.165131,96.049339 241.628479,96.218338 
	C247.355972,96.228554 252.735870,96.061417 258.498779,95.741241 
	C265.483521,95.412544 272.117157,94.760773 278.677521,95.200951 
	C284.715942,95.606102 285.986877,97.717613 285.998108,104.044113 
	C286.031128,122.658554 286.057343,141.273010 285.692200,160.037628 
	C283.165497,160.409836 281.033844,160.813461 278.900116,160.824570 
	C264.588654,160.899017 250.273941,160.720169 235.965744,160.955246 
	C221.366394,161.195099 208.625977,171.784256 206.141022,186.184906 
	C205.207840,191.592743 206.056000,197.307953 205.852341,203.191574 
	C205.426010,204.302216 205.001450,205.130981 205.087860,205.902512 
	C206.883621,221.936127 219.683502,235.659180 235.344086,235.953094 
	C252.166168,236.268799 268.998230,236.052292 285.885468,236.529053 
	C285.963226,252.148346 285.987732,267.306610 285.997009,282.464874 
	C286.001526,289.802094 284.766693,290.998779 277.235504,290.998932 
	C196.111908,291.000610 114.988274,290.963409 33.864738,291.035431 
	C20.082945,291.047668 9.711899,285.783112 3.505617,273.125946 
	C3.063599,272.224487 1.853146,271.699860 1.000000,271.000000 
z"/>
<path fill="#000000" opacity="1.000000" stroke="none" 
	d="
M286.086243,159.887466 
	C286.057343,141.273010 286.031128,122.658554 285.998108,104.044113 
	C285.986877,97.717613 284.715942,95.606102 278.677521,95.200951 
	C272.117157,94.760773 265.483521,95.412544 258.462646,95.290604 
	C257.972626,91.650566 257.901825,88.308121 257.885742,84.502182 
	C257.959747,72.558716 258.003082,61.078709 257.988281,49.598770 
	C257.980652,43.664814 256.612457,42.056866 250.772705,42.042934 
	C230.144150,41.993717 209.515213,42.107483 188.594772,41.994057 
	C179.059357,32.578815 169.819153,23.325373 160.570175,14.080736 
	C156.362244,9.874777 153.776321,9.879527 149.398315,14.108487 
	C145.596375,17.780993 141.817749,21.477638 137.709946,25.003063 
	C133.870773,21.326077 130.283875,17.873285 126.846916,14.277201 
	C122.489189,9.717726 120.913231,9.638321 116.445152,14.060670 
	C106.978271,23.430664 97.503181,32.792377 87.563614,42.103210 
	C69.129860,42.032017 51.162933,41.893650 33.198429,42.044086 
	C22.548189,42.133270 13.099656,45.264030 6.297267,54.172100 
	C4.709843,56.250912 2.774998,58.064423 1.000000,60.000000 
	C1.000000,40.349766 1.000000,20.699530 1.000000,1.024647 
	C100.900017,1.024647 200.800049,1.024647 301.000000,1.024647 
	C301.000000,55.687195 301.000000,110.374939 300.768127,165.870148 
	C296.539154,162.670090 292.123383,159.553574 286.086243,159.887466 
z"/>
<path fill="#F99608" opacity="1.000000" stroke="none" 
	d="
M285.692200,160.037628 
	C292.123383,159.553574 296.539154,162.670090 300.768127,166.338806 
	C301.000000,183.687561 301.000000,201.375122 300.762207,219.194672 
	C296.614563,223.515915 291.729828,225.639664 285.691711,225.965027 
	C283.369476,225.528229 281.437225,225.056091 279.502777,225.046646 
	C265.572845,224.978577 251.638947,224.812515 237.713501,225.068878 
	C228.689636,225.235001 221.151108,222.126068 215.225235,215.631866 
	C211.726151,211.797165 209.106949,207.159561 206.092056,202.883041 
	C206.056000,197.307953 205.207840,191.592743 206.141022,186.184906 
	C208.625977,171.784256 221.366394,161.195099 235.965744,160.955246 
	C250.273941,160.720169 264.588654,160.899017 278.900116,160.824570 
	C281.033844,160.813461 283.165497,160.409836 285.692200,160.037628 
M230.174500,183.750671 
	C229.714600,184.440460 229.217667,185.108658 228.800613,185.823441 
	C225.124420,192.124054 227.005249,200.032394 233.288010,204.748978 
	C238.518127,208.675323 247.447495,207.592834 251.872787,202.495972 
	C256.348602,197.340927 256.371674,188.190201 251.921143,183.318054 
	C246.320786,177.187149 237.498718,177.120926 230.174500,183.750671 
z"/>
<path fill="#000000" opacity="1.000000" stroke="none" 
	d="
M286.080688,226.143921 
	C291.729828,225.639664 296.614563,223.515915 300.762207,219.663330 
	C301.000000,246.971237 301.000000,273.942474 301.000000,300.953186 
	C201.000000,300.953186 101.000000,300.953186 1.000000,300.953186 
	C1.000000,291.250031 1.000000,281.593658 1.000000,271.468658 
	C1.853146,271.699860 3.063599,272.224487 3.505617,273.125946 
	C9.711899,285.783112 20.082945,291.047668 33.864738,291.035431 
	C114.988274,290.963409 196.111908,291.000610 277.235504,290.998932 
	C284.766693,290.998779 286.001526,289.802094 285.997009,282.464874 
	C285.987732,267.306610 285.963226,252.148346 285.952148,236.078369 
	C285.999756,232.159073 286.040222,229.151489 286.080688,226.143921 
z"/>
<path fill="#7C3E1E" opacity="1.000000" stroke="none" 
	d="
M1.000000,60.416664 
	C2.774998,58.064423 4.709843,56.250912 6.297267,54.172100 
	C13.099656,45.264030 22.548189,42.133270 33.198429,42.044086 
	C51.162933,41.893650 69.129860,42.032017 87.394119,42.383865 
	C85.149910,45.561592 82.712784,48.507683 80.046394,51.229156 
	C68.994118,62.509750 57.872566,73.722473 46.551136,85.055054 
	C45.883148,85.345955 45.440479,85.541924 44.623207,85.572006 
	C40.108738,85.268158 35.967487,85.162704 31.829287,84.985779 
	C21.931036,84.562576 13.278543,81.408768 6.989061,73.330933 
	C4.889470,70.634331 2.990618,67.781441 1.000001,65.000000 
	C1.000000,63.611111 1.000000,62.222221 1.000000,60.416664 
z"/>
<path fill="#69321A" opacity="1.000000" stroke="none" 
	d="
M1.000001,65.460632 
	C2.990618,67.781441 4.889470,70.634331 6.989061,73.330933 
	C13.278543,81.408768 21.931036,84.562576 31.829287,84.985779 
	C35.967487,85.162704 40.108738,85.268158 44.349014,85.787437 
	C41.502213,89.437691 38.555004,92.706619 35.607796,95.975548 
	C23.660105,99.569298 5.871384,94.679504 1.200017,77.290512 
	C1.000000,73.307091 1.000000,69.614182 1.000001,65.460632 
z"/>
<path fill="#6D8915" opacity="1.000000" stroke="none" 
	d="
M215.997757,95.998962 
	C175.966370,96.014008 135.934967,96.029053 95.522064,95.681023 
	C97.787544,91.942177 100.434547,88.566406 103.426270,85.144119 
	C104.462860,85.017029 105.154724,84.936432 106.328354,84.893845 
	C139.554413,84.940437 172.298721,84.949036 205.356842,84.988441 
	C206.086868,85.075775 206.503098,85.132286 207.017822,85.507843 
	C210.076797,89.217590 213.037277,92.608276 215.997757,95.998962 
z"/>
<path fill="#7D3E1E" opacity="1.000000" stroke="none" 
	d="
M285.691711,225.965027 
	C286.040222,229.151489 285.999756,232.159073 285.892639,235.617340 
	C268.998230,236.052292 252.166168,236.268799 235.344086,235.953094 
	C219.683502,235.659180 206.883621,221.936127 205.087860,205.902512 
	C205.001450,205.130981 205.426010,204.302216 205.852341,203.191574 
	C209.106949,207.159561 211.726151,211.797165 215.225235,215.631866 
	C221.151108,222.126068 228.689636,225.235001 237.713501,225.068878 
	C251.638947,224.812515 265.572845,224.978577 279.502777,225.046646 
	C281.437225,225.056091 283.369476,225.528229 285.691711,225.965027 
z"/>
<path fill="#6D8915" opacity="1.000000" stroke="none" 
	d="
M36.112923,96.007828 
	C38.555004,92.706619 41.502213,89.437691 44.723618,85.953323 
	C45.440479,85.541924 45.883148,85.345955 47.040710,85.063927 
	C58.160389,84.992157 68.565170,85.006454 78.798248,85.302444 
	C75.405792,89.060516 72.185043,92.536896 68.964302,96.013268 
	C58.182217,96.022217 47.400131,96.031166 36.112923,96.007828 
z"/>
<path fill="#78A017" opacity="1.000000" stroke="none" 
	d="
M216.465714,96.032501 
	C213.037277,92.608276 210.076797,89.217590 207.492035,85.453682 
	C209.822861,85.053497 211.783142,85.107704 213.732086,84.983803 
	C218.866791,84.657387 223.996567,84.253593 229.379395,83.997871 
	C230.097794,84.411835 230.565094,84.708534 231.194778,85.292999 
	C234.665070,89.067505 237.972961,92.554245 241.280869,96.040985 
	C233.165131,96.049339 225.049408,96.057686 216.465714,96.032501 
z"/>
<path fill="#78A017" opacity="1.000000" stroke="none" 
	d="
M69.435745,96.045013 
	C72.185043,92.536896 75.405792,89.060516 79.079147,85.287842 
	C79.718742,84.980949 79.905739,84.970345 80.555504,84.966492 
	C88.372696,85.045708 95.727127,85.118164 103.081551,85.190628 
	C100.434547,88.566406 97.787544,91.942177 95.052078,95.647369 
	C86.611473,96.010109 78.259338,96.043434 69.435745,96.045013 
z"/>
<path fill="#68331A" opacity="1.000000" stroke="none" 
	d="
M241.628479,96.218338 
	C237.972961,92.554245 234.665070,89.067505 231.660431,85.291779 
	C240.586121,84.990425 249.208557,84.978050 257.830994,84.965683 
	C257.901825,88.308121 257.972626,91.650566 258.079590,95.443649 
	C252.735870,96.061417 247.355972,96.228554 241.628479,96.218338 
z"/>
<path fill="#8ACC19" opacity="1.000000" stroke="none" 
	d="
M103.426270,85.144119 
	C95.727127,85.118164 88.372696,85.045708 80.714424,84.685516 
	C98.235207,66.478951 116.076584,48.576675 133.855896,30.612970 
	C135.452393,28.999929 136.647369,26.989492 138.028824,25.163614 
	C141.817749,21.477638 145.596375,17.780993 149.398315,14.108487 
	C153.776321,9.879527 156.362244,9.874777 160.570175,14.080736 
	C169.819153,23.325373 179.059357,32.578815 188.651581,42.330643 
	C190.262131,44.331482 191.427414,45.926205 192.801544,47.314186 
	C204.889343,59.523899 217.014328,71.696808 229.128311,83.880608 
	C223.996567,84.253593 218.866791,84.657387 213.732086,84.983803 
	C211.783142,85.107704 209.822861,85.053497 207.393539,85.134628 
	C206.503098,85.132286 206.086868,85.075775 205.167480,84.716644 
	C193.861496,73.547256 183.061447,62.677753 172.253860,51.815723 
	C169.705444,49.254452 167.314987,48.614098 163.989670,51.128185 
	C158.602280,55.201302 151.952927,55.420284 147.323929,51.651722 
	C143.265289,48.347488 140.293594,49.180271 136.976212,52.551353 
	C127.629478,62.049343 118.137062,71.403847 108.757965,80.870262 
	C107.612991,82.025887 106.808746,83.519089 105.846603,84.855835 
	C105.154724,84.936432 104.462860,85.017029 103.426270,85.144119 
z"/>
<path fill="#78AA17" opacity="1.000000" stroke="none" 
	d="
M137.709946,25.003059 
	C136.647369,26.989492 135.452393,28.999929 133.855896,30.612970 
	C116.076584,48.576675 98.235207,66.478951 80.251656,84.678772 
	C79.905739,84.970345 79.718742,84.980949 79.250854,85.006149 
	C68.565170,85.006454 58.160389,84.992157 47.266029,84.968994 
	C57.872566,73.722473 68.994118,62.509750 80.046394,51.229156 
	C82.712784,48.507683 85.149910,45.561592 87.861969,42.438145 
	C97.503181,32.792377 106.978271,23.430664 116.445152,14.060670 
	C120.913231,9.638321 122.489189,9.717726 126.846916,14.277201 
	C130.283875,17.873285 133.870773,21.326077 137.709946,25.003059 
z"/>
<path fill="#7C3D1E" opacity="1.000000" stroke="none" 
	d="
M229.379395,83.997871 
	C217.014328,71.696808 204.889343,59.523899 192.801544,47.314186 
	C191.427414,45.926205 190.262131,44.331482 188.943207,42.496037 
	C209.515213,42.107483 230.144150,41.993717 250.772705,42.042934 
	C256.612457,42.056866 257.980652,43.664814 257.988281,49.598770 
	C258.003082,61.078709 257.959747,72.558716 257.885742,84.502190 
	C249.208557,84.978050 240.586121,84.990425 231.498047,85.004013 
	C230.565094,84.708534 230.097794,84.411835 229.379395,83.997871 
z"/>
<path fill="#FFCF39" opacity="1.000000" stroke="none" 
	d="
M230.404541,183.454468 
	C237.498718,177.120926 246.320786,177.187149 251.921143,183.318054 
	C256.371674,188.190201 256.348602,197.340927 251.872787,202.495972 
	C247.447495,207.592834 238.518127,208.675323 233.288010,204.748978 
	C227.005249,200.032394 225.124420,192.124054 228.800613,185.823441 
	C229.217667,185.108658 229.714600,184.440460 230.404541,183.454468 
z"/>
<path fill="#78A017" opacity="1.000000" stroke="none" 
	d="
M106.328354,84.893845 
	C106.808746,83.519089 107.612991,82.025887 108.757965,80.870262 
	C118.137062,71.403847 127.629478,62.049343 136.976212,52.551353 
	C140.293594,49.180271 143.265289,48.347488 147.323929,51.651722 
	C151.952927,55.420284 158.602280,55.201302 163.989670,51.128185 
	C167.314987,48.614098 169.705444,49.254452 172.253860,51.815723 
	C183.061447,62.677753 193.861496,73.547256 204.853668,84.685829 
	C172.298721,84.949036 139.554413,84.940437 106.328354,84.893845 
z"/>
</svg>